<?xml version="1.0" encoding="UTF-8" standalone="no"?>
<svg
   xmlns:dc="http://purl.org/dc/elements/1.1/"
   xmlns:cc="http://creativecommons.org/ns#"
   xmlns:rdf="http://www.w3.org/1999/02/22-rdf-syntax-ns#"
   xmlns:svg="http://www.w3.org/2000/svg"
   xmlns="http://www.w3.org/2000/svg"
   xmlns:sodipodi="http://sodipodi.sourceforge.net/DTD/sodipodi-0.dtd"
   xmlns:inkscape="http://www.inkscape.org/namespaces/inkscape"
   version="1.1"
   id="svg4938"
   viewBox="0 0 300 300"
   height="300"
   width="300"
   sodipodi:docname="bear--bronze.svg"
   inkscape:version="0.92.2 5c3e80d, 2017-08-06"
   inkscape:export-filename="/Users/jh3y/Documents/Workspace/doodles/bear-silver-badge-large.png"
   inkscape:export-xdpi="23.040001"
   inkscape:export-ydpi="23.040001">
  <sodipodi:namedview
     pagecolor="#ffffff"
     bordercolor="#666666"
     borderopacity="1"
     objecttolerance="10"
     gridtolerance="10"
     guidetolerance="10"
     inkscape:pageopacity="0"
     inkscape:pageshadow="2"
     inkscape:window-width="1850"
     inkscape:window-height="1138"
     id="namedview1021"
     showgrid="false"
     inkscape:zoom="2.0683334"
     inkscape:cx="150"
     inkscape:cy="150"
     inkscape:window-x="247"
     inkscape:window-y="68"
     inkscape:window-maximized="0"
     inkscape:current-layer="g5973" />
  <defs
     id="defs4940" />
  <metadata
     id="metadata4943">
    <rdf:RDF>
      <cc:Work
         rdf:about="">
        <dc:format>image/svg+xml</dc:format>
        <dc:type
           rdf:resource="http://purl.org/dc/dcmitype/StillImage" />
        <dc:title></dc:title>
      </cc:Work>
    </rdf:RDF>
  </metadata>
  <g
     transform="translate(0,-752.36216)"
     id="layer1">
    <g
       transform="matrix(1.3410461,0,0,1.3410461,-51.156929,-297.33196)"
       id="g5973">
      <path
         style="fill:#b35314;fill-opacity:1;stroke:none;stroke-width:6;stroke-linecap:round;stroke-linejoin:round;stroke-miterlimit:4;stroke-dasharray:none;stroke-opacity:1"
         d="m 242.82182,893.86855 c 2e-5,61.25171 -36.05863,106.28475 -94.20821,106.28475 -54.325623,0 -91.435445,-45.03304 -91.435426,-106.28475 4e-6,-61.2517 37.667409,-85.95098 90.973296,-85.95098 53.3059,0 94.67034,24.69928 94.67034,85.95098 z"
         id="path5634"
         inkscape:connector-curvature="0"
         sodipodi:nodetypes="sssss" />
      <path
         style="fill:#c97339;fill-opacity:1;stroke:none;stroke-width:6;stroke-linecap:round;stroke-linejoin:round;stroke-miterlimit:4;stroke-dasharray:none;stroke-opacity:1"
         d="m 211.92542,958.10462 c 2e-5,19.90778 -28.60087,38.8189 -63.31181,38.8189 -34.71094,0 -60.539047,-18.91112 -60.539029,-38.8189 0,-19.90774 26.290239,-33.27336 61.001159,-33.27336 34.71092,0 62.84968,13.36562 62.84968,33.27336 z"
         id="path5639"
         inkscape:connector-curvature="0"
         sodipodi:nodetypes="csssc" />
      <path
         style="fill:#552809;fill-opacity:1;stroke:none;stroke-width:6;stroke-linecap:round;stroke-linejoin:round;stroke-miterlimit:4;stroke-dasharray:none;stroke-opacity:1"
         d="m 181.19378,931.76321 c 0,7.65682 -19.03951,24.49289 -30.26951,24.49289 -11.23,0 -32.11804,-16.83607 -32.11804,-24.49289 0,-7.65682 20.23914,-12.47751 31.46914,-12.47751 11.23,0 30.91841,4.82069 30.91841,12.47751 z"
         id="path5636"
         inkscape:connector-curvature="0"
         sodipodi:nodetypes="sssss" />
      <ellipse
         style="fill:#b35314;fill-opacity:1;stroke:none;stroke-width:6;stroke-linecap:round;stroke-linejoin:round;stroke-miterlimit:4;stroke-dasharray:none;stroke-opacity:1"
         id="path5793"
         cx="68.304314"
         cy="827.68188"
         rx="23.761904"
         ry="23.110893" />
      <path
         style="fill:#c97339;fill-opacity:1;stroke:none;stroke-width:6;stroke-linecap:round;stroke-linejoin:round;stroke-miterlimit:4;stroke-dasharray:none;stroke-opacity:1"
         d="m 84.783829,826.31658 a 16.548868,16.095475 0 0 0 -16.479516,-14.73097 16.548868,16.095475 0 0 0 -16.548469,16.09586 16.548868,16.095475 0 0 0 16.548469,16.09587 16.548868,16.095475 0 0 0 1.131519,-0.0389 c 0.815278,-1.33699 1.581797,-2.72722 2.471662,-3.9833 1.572046,-2.21902 3.258302,-4.3124 5.054709,-6.28347 1.796407,-1.97106 3.702393,-3.81907 5.712404,-5.54798 0.668844,-0.57531 1.417521,-1.05819 2.109222,-1.60711 z"
         id="path5806" />
      <ellipse
         ry="23.110893"
         rx="23.761904"
         cy="827.68188"
         cx="-231.24309"
         id="ellipse5814"
         style="fill:#b35314;fill-opacity:1;stroke:none;stroke-width:6;stroke-linecap:round;stroke-linejoin:round;stroke-miterlimit:4;stroke-dasharray:none;stroke-opacity:1"
         transform="scale(-1,1)" />
      <path
         id="path5816"
         d="m 214.76356,826.31658 a 16.548868,16.095475 0 0 1 16.47952,-14.73097 16.548868,16.095475 0 0 1 16.54847,16.09586 16.548868,16.095475 0 0 1 -16.54847,16.09587 16.548868,16.095475 0 0 1 -1.13152,-0.0389 c -0.81528,-1.33699 -1.5818,-2.72722 -2.47166,-3.9833 -1.57205,-2.21902 -3.2583,-4.3124 -5.05471,-6.28347 -1.79641,-1.97106 -3.70239,-3.81907 -5.7124,-5.54798 -0.66885,-0.57531 -1.41753,-1.05819 -2.10923,-1.60711 z"
         style="fill:#c97339;fill-opacity:1;stroke:none;stroke-width:6;stroke-linecap:round;stroke-linejoin:round;stroke-miterlimit:4;stroke-dasharray:none;stroke-opacity:1" />
      <path
         inkscape:connector-curvature="0"
         id="path5921"
         d="m 147.73148,815.35773 c -13.39625,0 -26.02272,1.07931 -37.67187,3.33442 v 11.35333 c 11.64929,-2.25501 24.27565,-3.33443 37.67187,-3.33442 15.1037,0 29.45807,1.37252 42.66602,4.25604 v -11.35498 c -13.20738,-2.88322 -27.56311,-4.25439 -42.66602,-4.25439 z"
         style="fill:#77370d;fill-opacity:1;stroke:none;stroke-width:6;stroke-linecap:round;stroke-linejoin:round;stroke-miterlimit:4;stroke-dasharray:none;stroke-opacity:1" />
      <path
         inkscape:connector-curvature="0"
         style="fill:#8e4210;fill-opacity:1;stroke:none;stroke-width:6;stroke-linecap:round;stroke-linejoin:round;stroke-miterlimit:4;stroke-dasharray:none;stroke-opacity:1"
         d="m 165.19535,816.01278 a 15.875,7.8125 0 0 1 4.42969,5.41211 15.875,7.8125 0 0 1 -5.41406,5.86328 c 9.11632,0.65256 17.87758,1.86592 26.18554,3.67969 v -11.35547 c -8.00689,-1.74793 -16.43955,-2.93174 -25.20117,-3.59961 z"
         id="path5926" />
      <path
         style="fill:#552809;fill-opacity:1;stroke:none;stroke-width:6;stroke-linecap:round;stroke-linejoin:round;stroke-miterlimit:4;stroke-dasharray:none;stroke-opacity:1"
         d="m 148.05961,789.03817 c -43.48918,0 -75.871835,19.48078 -83.283765,63.85644 12.32201,-10.51592 27.906385,-18.69449 45.284745,-22.65136 0,0 -2.44586,-12.49893 10.25,-16.02881 14.51339,-4.03521 18.40391,-3.94358 27.74902,-4 10.20029,-0.0616 15.07513,-0.0706 30.33887,4 14.18652,3.78334 12,17.11279 12,17.11279 17.21703,4.421 31.84526,10.7218 44.26307,21.56738 -7.27614,-46.02916 -42.37497,-63.85644 -86.60194,-63.85644 z"
         id="path5918"
         inkscape:connector-curvature="0"
         sodipodi:nodetypes="sccsasccs" />
      <circle
         style="fill:#ffaaaa;fill-opacity:0.57698957;stroke:none;stroke-width:8.41270065;stroke-linecap:round;stroke-linejoin:round;stroke-miterlimit:4;stroke-dasharray:none;stroke-dashoffset:0;stroke-opacity:1"
         id="path1046"
         cx="97.241508"
         cy="894.08136"
         r="11.185298" />
      <circle
         cy="894.08136"
         cx="201.85071"
         id="circle1048"
         style="fill:#ffaaaa;fill-opacity:0.57698957;stroke:none;stroke-width:8.41270065;stroke-linecap:round;stroke-linejoin:round;stroke-miterlimit:4;stroke-dasharray:none;stroke-dashoffset:0;stroke-opacity:1"
         r="11.185298" />
      <path
         style="fill:none;fill-opacity:0.57698957;stroke:#e9afaf;stroke-width:2.98274612;stroke-linecap:round;stroke-linejoin:round;stroke-miterlimit:4;stroke-dasharray:none;stroke-dashoffset:0;stroke-opacity:1"
         id="path1066"
         sodipodi:type="arc"
         sodipodi:cx="75.330406"
         sodipodi:cy="864.0412"
         sodipodi:rx="21.270994"
         sodipodi:ry="21.270994"
         sodipodi:start="0"
         sodipodi:end="1.642744"
         sodipodi:open="true"
         d="m 96.6014,864.0412 a 21.270994,21.270994 0 0 1 -6.780822,15.57209 21.270994,21.270994 0 0 1 -16.01925,5.64387" />
      <path
         d="m -203.52995,864.0412 a 21.270994,21.270994 0 0 1 -6.78083,15.57209 21.270994,21.270994 0 0 1 -16.01925,5.64387"
         sodipodi:open="true"
         sodipodi:end="1.642744"
         sodipodi:start="0"
         sodipodi:ry="21.270994"
         sodipodi:rx="21.270994"
         sodipodi:cy="864.0412"
         sodipodi:cx="-224.80095"
         sodipodi:type="arc"
         id="path1068"
         style="fill:none;fill-opacity:0.57698957;stroke:#e9afaf;stroke-width:2.98274612;stroke-linecap:round;stroke-linejoin:round;stroke-miterlimit:4;stroke-dasharray:none;stroke-dashoffset:0;stroke-opacity:1"
         transform="scale(-1,1)" />
      <path
         style="fill:#401e07;fill-opacity:1;stroke:none;stroke-width:9.38663292;stroke-linecap:square;stroke-linejoin:round;stroke-miterlimit:4;stroke-dasharray:none;stroke-opacity:1"
         d="m 77.290278,854.60807 c -6.508268,-0.0698 -13.362869,0.18154 -22.799708,2.13125 l -14.318288,2.76831 2.307704,15.03787 c 2.093817,0.29341 4.983586,1.01615 6.352474,2.84853 3.527461,4.72182 1.201337,9.28644 2.002908,17.62515 2.670509,27.78115 11.920554,33.59539 26.246363,35.26633 7.502125,0.87503 22.815947,2.28245 33.279459,-1.43228 9.45641,-3.35719 18.22342,-9.86856 24.15867,-17.95973 6.27429,-8.55338 6.94843,-18.23561 10.84303,-25.726 2.76006,-5.30836 7.70011,-4.17622 9.25831,0 2.95121,7.90975 4.37844,17.17262 10.65272,25.726 5.93522,8.09117 14.70225,14.60254 24.15866,17.95973 10.46351,3.71473 25.77734,2.30731 33.27946,1.43228 14.32582,-1.67094 23.57814,-7.48518 26.24865,-35.26633 0.80157,-8.33871 -1.52454,-12.90333 2.00291,-17.62515 1.41399,-1.89276 4.46354,-2.61131 6.5679,-2.8852 l 2.29624,-14.96223 -14.52224,-2.80728 c -15.09895,-3.11953 -23.59051,-1.88938 -34.62237,-1.95708 -4.0931,-0.0251 -8.77706,0.11452 -13.13579,0.57291 -8.12582,0.8545 -16.17609,2.38161 -24.1747,4.04936 -7.98733,1.6654 -14.9397,6.10076 -23.09727,5.94228 -7.86888,-0.15288 -15.61569,-4.97649 -23.3134,-6.61603 -8.13165,-1.73196 -14.82425,-3.10619 -24.71325,-3.37561 -4.793373,-0.13059 -9.04269,-0.59804 -13.135778,-0.57291 -4.136947,0.0253 -7.917707,-0.13226 -11.822664,-0.17417 z"
         id="path4689"
         inkscape:connector-curvature="0"
         sodipodi:nodetypes="cccccssscsscsssccccccsssscc" />
      <path
         id="path4694"
         d="m 85.279863,860.47128 c -10.088048,0.16724 -24.806993,0.70593 -28.480733,12.2512 -3.2757,15.2483 -3.120703,32.76007 5.736019,45.62692 7.396221,10.74505 23.364983,8.63659 35.257354,8.21953 18.899047,-0.66279 35.138487,-15.38261 40.158827,-33.38882 1.92913,-7.7531 4.16788,-13.9285 0.696,-19.38193 -5.94619,-9.3399 -20.09927,-11.77826 -30.58062,-12.96702 -7.51806,-0.3062 -15.195466,-0.44294 -22.786847,-0.35988 z"
         style="fill:#b15d34;fill-opacity:1;stroke:none;stroke-width:9.38663292;stroke-linecap:square;stroke-linejoin:round;stroke-miterlimit:4;stroke-dasharray:none;stroke-opacity:1"
         inkscape:connector-curvature="0"
         sodipodi:nodetypes="ccsscacc" />
      <path
         d="m 56.040338,864.29884 a 4.0790107,1.6921609 0 0 1 -4.058146,1.69214 4.0790107,1.6921609 0 0 1 -4.099659,-1.67483 4.0790107,1.6921609 0 0 1 4.016223,-1.70927 4.0790107,1.6921609 0 0 1 4.140737,1.65735"
         id="path4707"
         style="fill:#c97339;fill-opacity:1;stroke:none;stroke-width:9.38663292;stroke-linecap:square;stroke-linejoin:round;stroke-miterlimit:4;stroke-dasharray:none;stroke-opacity:1"
         inkscape:connector-curvature="0" />
      <path
         style="fill:#b15d34;fill-opacity:0.99543381;stroke:none;stroke-width:9.38663292;stroke-linecap:square;stroke-linejoin:round;stroke-miterlimit:4;stroke-dasharray:none;stroke-opacity:1"
         d="m 214.51539,860.47128 c 10.08805,0.16724 24.80699,0.70593 28.48073,12.2512 3.2757,15.2483 3.1207,32.76007 -5.73602,45.62692 -7.39622,10.74505 -23.36498,8.63659 -35.25735,8.21953 -18.89905,-0.66279 -35.13849,-15.38261 -40.15883,-33.38882 -1.92913,-7.7531 -4.16788,-13.9285 -0.696,-19.38193 5.94619,-9.3399 20.09927,-11.77826 30.58062,-12.96702 7.51806,-0.3062 15.19547,-0.44294 22.78685,-0.35988 z"
         id="path4810"
         inkscape:connector-curvature="0"
         sodipodi:nodetypes="ccsscacc" />
      <path
         style="fill:#c97339;fill-opacity:1;stroke:none;stroke-width:9.38663292;stroke-linecap:square;stroke-linejoin:round;stroke-miterlimit:4;stroke-dasharray:none;stroke-opacity:1"
         id="path4812"
         d="m 243.7549,864.29884 a 4.0790107,1.6921609 0 0 0 4.05816,1.69214 4.0790107,1.6921609 0 0 0 4.09966,-1.67483 4.0790107,1.6921609 0 0 0 -4.01623,-1.70927 4.0790107,1.6921609 0 0 0 -4.14073,1.65735"
         inkscape:connector-curvature="0" />
      <path
         style="fill:#ffffff;fill-opacity:1;stroke:none;stroke-width:7.03997469;stroke-linecap:round;stroke-linejoin:round;stroke-miterlimit:4;stroke-dasharray:none;stroke-opacity:1"
         d="m 100.81186,860.59847 -19.185768,66.30455 c 5.849118,0.15868 11.674921,-0.0449 16.894106,-0.37812 l 18.585352,-64.22143 c -5.54814,-1.36331 -11.03185,-1.57041 -16.29369,-1.705 z"
         id="rect4338"
         inkscape:connector-curvature="0"
         sodipodi:nodetypes="ccccc" />
      <path
         style="fill:#ffffff;fill-opacity:1;stroke:none;stroke-width:7.03997469;stroke-linecap:round;stroke-linejoin:round;stroke-miterlimit:4;stroke-dasharray:none;stroke-opacity:1"
         d="m 89.15419,860.45639 c -1.292617,0.002 -2.586336,-3.5e-4 -3.875194,0.0137 -1.081183,0.0179 -2.234844,0.0498 -3.403113,0.0894 l -17.661811,59.85354 c 1.728815,1.82684 3.770119,3.17163 6.024769,4.1479 z"
         id="rect4348"
         inkscape:connector-curvature="0" />
    </g>
  </g>
</svg>
