<?xml version="1.0" encoding="UTF-8" standalone="no"?>
<svg
   xmlns:dc="http://purl.org/dc/elements/1.1/"
   xmlns:cc="http://creativecommons.org/ns#"
   xmlns:rdf="http://www.w3.org/1999/02/22-rdf-syntax-ns#"
   xmlns:svg="http://www.w3.org/2000/svg"
   xmlns="http://www.w3.org/2000/svg"
   xmlns:xlink="http://www.w3.org/1999/xlink"
   xmlns:sodipodi="http://sodipodi.sourceforge.net/DTD/sodipodi-0.dtd"
   xmlns:inkscape="http://www.inkscape.org/namespaces/inkscape"
   version="1.1"
   id="svg4938"
   viewBox="0 0 1920 1080"
   height="1080"
   width="1920"
   sodipodi:docname="twitch-video-player-banner.svg"
   inkscape:version="0.92.2 5c3e80d, 2017-08-06"
   inkscape:export-filename="/Users/jh3y/Documents/Workspace/doodles/twitch-video-player-banner.png"
   inkscape:export-xdpi="96"
   inkscape:export-ydpi="96">
  <sodipodi:namedview
     pagecolor="#ffffff"
     bordercolor="#666666"
     borderopacity="1"
     objecttolerance="10"
     gridtolerance="10"
     guidetolerance="10"
     inkscape:pageopacity="0"
     inkscape:pageshadow="2"
     inkscape:window-width="3422"
     inkscape:window-height="1376"
     id="namedview1021"
     showgrid="false"
     inkscape:zoom="1.1101852"
     inkscape:cx="960"
     inkscape:cy="503.96997"
     inkscape:window-x="0"
     inkscape:window-y="478"
     inkscape:window-maximized="0"
     inkscape:current-layer="layer1" />
  <defs
     id="defs4940">
    <pattern
       inkscape:collect="always"
       xlink:href="#Strips1_8white"
       id="pattern3106"
       patternTransform="matrix(13.410461,0,0,13.410461,-72.156913,-297.33196)" />
    <linearGradient
       inkscape:collect="always"
       id="linearGradient3100">
      <stop
         style="stop-color:#000000;stop-opacity:1;"
         offset="0"
         id="stop3096" />
      <stop
         style="stop-color:#000000;stop-opacity:0;"
         offset="1"
         id="stop3098" />
    </linearGradient>
    <pattern
       inkscape:collect="always"
       xlink:href="#Strips1_8white"
       id="pattern3084"
       patternTransform="matrix(13.410461,0,0,13.410461,-821.29486,-1349.6942)" />
    <pattern
       inkscape:stockid="Stripes 1:8 white"
       id="Strips1_8white"
       patternTransform="translate(0,0) scale(10,10)"
       height="1"
       width="9"
       patternUnits="userSpaceOnUse"
       inkscape:collect="always">
      <rect
         id="rect2337"
         height="2"
         width="1"
         y="-0.5"
         x="0"
         style="fill:white;stroke:none" />
    </pattern>
    <pattern
       inkscape:collect="always"
       xlink:href="#pattern3034"
       id="pattern3044" />
    <pattern
       inkscape:collect="always"
       xlink:href="#Strips1_5"
       id="pattern3037"
       patternTransform="matrix(13.410461,0,0,13.410461,-51.156915,-269.69412)" />
    <pattern
       inkscape:stockid="Stripes 1:5"
       id="Strips1_5"
       patternTransform="translate(0,0) scale(10,10)"
       height="1"
       width="6"
       patternUnits="userSpaceOnUse"
       inkscape:collect="always">
      <rect
         id="rect2328"
         height="2"
         width="1"
         y="-0.5"
         x="0"
         style="fill:black;stroke:none" />
    </pattern>
    <pattern
       patternUnits="userSpaceOnUse"
       width="1920"
       height="1080"
       patternTransform="matrix(0.74568652,0,0,0.74568652,38.147022,201.10727)"
       id="pattern3034">
      <rect
         ry="0"
         y="0"
         x="0"
         height="1080"
         width="1920"
         id="rect1516"
         style="fill:url(#pattern3037);fill-opacity:1;fill-rule:nonzero;stroke:none;stroke-width:11.09102631;stroke-linecap:square;stroke-linejoin:round;stroke-miterlimit:4;stroke-dasharray:none;stroke-dashoffset:0;stroke-opacity:1" />
    </pattern>
    <pattern
       patternUnits="userSpaceOnUse"
       width="1920"
       height="1080"
       patternTransform="matrix(0.74568652,0,0,0.74568652,38.147022,201.10727)"
       id="pattern3041">
      <rect
         id="rect3039"
         y="0"
         x="0"
         height="1080"
         width="1920"
         style="fill:url(#pattern3044);stroke:none;stroke-width:1.34104609" />
    </pattern>
    <linearGradient
       inkscape:collect="always"
       xlink:href="#linearGradient3100"
       id="linearGradient3110"
       gradientUnits="userSpaceOnUse"
       x1="1425.1239"
       y1="603.778"
       x2="1425.1239"
       y2="1006.4487"
       gradientTransform="matrix(1.3410461,0,0,1.3410461,-1971.1569,-1324.7585)" />
    <linearGradient
       inkscape:collect="always"
       xlink:href="#linearGradient3100"
       id="linearGradient3165"
       gradientUnits="userSpaceOnUse"
       gradientTransform="matrix(1.3410461,0,0,1.3410461,-1971.1569,-1324.7585)"
       x1="1425.1239"
       y1="603.778"
       x2="1425.1239"
       y2="1006.4487" />
  </defs>
  <metadata
     id="metadata4943">
    <rdf:RDF>
      <cc:Work
         rdf:about="">
        <dc:format>image/svg+xml</dc:format>
        <dc:type
           rdf:resource="http://purl.org/dc/dcmitype/StillImage" />
        <dc:title></dc:title>
      </cc:Work>
    </rdf:RDF>
  </metadata>
  <g
     transform="translate(0,27.63784)"
     id="layer1">
    <rect
       id="rect3046"
       y="-27.63784"
       x="-1.3588626e-05"
       height="1080"
       width="1920"
       style="fill:#999999;fill-opacity:1;stroke:none;stroke-width:1.34104609" />
    <rect
       style="fill:url(#pattern3106);fill-opacity:1;stroke:none;stroke-width:1.34104609"
       width="1920"
       height="1080"
       x="-21"
       y="-27.63784"
       id="rect3050" />
    <rect
       inkscape:transform-center-y="-60.350292"
       inkscape:transform-center-x="27.923269"
       transform="rotate(90)"
       id="rect3074"
       y="-1920"
       x="-770.13788"
       height="1920"
       width="1920"
       style="fill:url(#pattern3084);fill-opacity:1;stroke:none;stroke-width:1.7880615" />
    <rect
       y="988.75916"
       x="-1.3588626e-05"
       height="63.603004"
       width="1920"
       id="rect1532"
       style="fill:#ff00ff;fill-opacity:1;fill-rule:nonzero;stroke:none;stroke-width:22.83687782;stroke-linecap:butt;stroke-linejoin:miter;stroke-miterlimit:4;stroke-dasharray:none;stroke-dashoffset:0;stroke-opacity:1" />
    <rect
       style="fill:#ff00ff;fill-opacity:1;fill-rule:nonzero;stroke:none;stroke-width:22.18061256;stroke-linecap:butt;stroke-linejoin:miter;stroke-miterlimit:4;stroke-dasharray:none;stroke-dashoffset:0;stroke-opacity:1"
       id="rect1534"
       width="1920"
       height="60"
       x="-1.3588626e-05"
       y="-27.63784" />
    <g
       id="g1562"
       transform="matrix(1.3410461,0,0,1.3410461,-51.156929,-297.33196)">
      <circle
         style="fill:#000000;fill-opacity:1;fill-rule:nonzero;stroke:#ffffff;stroke-width:7.45686531;stroke-linecap:square;stroke-linejoin:round;stroke-miterlimit:4;stroke-dasharray:none;stroke-dashoffset:0;stroke-opacity:1"
         id="path1514"
         cx="754.0061"
         cy="603.77802"
         r="157.17256" />
      <g
         id="g1493"
         transform="translate(604.00608,-290.81774)">
        <path
           sodipodi:nodetypes="sssss"
           inkscape:connector-curvature="0"
           id="path5634"
           d="m 242.82182,893.86855 c 2e-5,61.25171 -36.05863,106.28475 -94.20821,106.28475 -54.325623,0 -91.435445,-45.03304 -91.435426,-106.28475 4e-6,-61.2517 37.667409,-85.95098 90.973296,-85.95098 53.3059,0 94.67034,24.69928 94.67034,85.95098 z"
           style="fill:#803300;fill-opacity:1;stroke:none;stroke-width:6;stroke-linecap:round;stroke-linejoin:round;stroke-miterlimit:4;stroke-dasharray:none;stroke-opacity:1" />
        <path
           sodipodi:nodetypes="csssc"
           inkscape:connector-curvature="0"
           id="path5639"
           d="m 211.92542,958.10462 c 2e-5,19.90778 -28.60087,38.8189 -63.31181,38.8189 -34.71094,0 -60.539047,-18.91112 -60.539029,-38.8189 0,-19.90774 26.290239,-33.27336 61.001159,-33.27336 34.71092,0 62.84968,13.36562 62.84968,33.27336 z"
           style="fill:#e9c6af;fill-opacity:1;stroke:none;stroke-width:6;stroke-linecap:round;stroke-linejoin:round;stroke-miterlimit:4;stroke-dasharray:none;stroke-opacity:1" />
        <path
           sodipodi:nodetypes="sssss"
           inkscape:connector-curvature="0"
           id="path5636"
           d="m 181.19378,931.76321 c 0,7.65682 -19.03951,24.49289 -30.26951,24.49289 -11.23,0 -32.11804,-16.83607 -32.11804,-24.49289 0,-7.65682 20.23914,-12.47751 31.46914,-12.47751 11.23,0 30.91841,4.82069 30.91841,12.47751 z"
           style="fill:#000000;fill-opacity:1;stroke:none;stroke-width:6;stroke-linecap:round;stroke-linejoin:round;stroke-miterlimit:4;stroke-dasharray:none;stroke-opacity:1" />
        <ellipse
           ry="23.110893"
           rx="23.761904"
           cy="827.68188"
           cx="68.304314"
           id="path5793"
           style="fill:#803300;fill-opacity:1;stroke:none;stroke-width:6;stroke-linecap:round;stroke-linejoin:round;stroke-miterlimit:4;stroke-dasharray:none;stroke-opacity:1" />
        <path
           inkscape:connector-curvature="0"
           id="path5806"
           d="m 84.783829,826.31658 a 16.548868,16.095475 0 0 0 -16.479516,-14.73097 16.548868,16.095475 0 0 0 -16.548469,16.09586 16.548868,16.095475 0 0 0 16.548469,16.09587 16.548868,16.095475 0 0 0 1.131519,-0.0389 c 0.815278,-1.33699 1.581797,-2.72722 2.471662,-3.9833 1.572046,-2.21902 3.258302,-4.3124 5.054709,-6.28347 1.796407,-1.97106 3.702393,-3.81907 5.712404,-5.54798 0.668844,-0.57531 1.417521,-1.05819 2.109222,-1.60711 z"
           style="fill:#e9c6af;fill-opacity:1;stroke:none;stroke-width:6;stroke-linecap:round;stroke-linejoin:round;stroke-miterlimit:4;stroke-dasharray:none;stroke-opacity:1" />
        <ellipse
           transform="scale(-1,1)"
           style="fill:#803300;fill-opacity:1;stroke:none;stroke-width:6;stroke-linecap:round;stroke-linejoin:round;stroke-miterlimit:4;stroke-dasharray:none;stroke-opacity:1"
           id="ellipse5814"
           cx="-231.24309"
           cy="827.68188"
           rx="23.761904"
           ry="23.110893" />
        <path
           inkscape:connector-curvature="0"
           style="fill:#e9c6af;fill-opacity:1;stroke:none;stroke-width:6;stroke-linecap:round;stroke-linejoin:round;stroke-miterlimit:4;stroke-dasharray:none;stroke-opacity:1"
           d="m 214.76356,826.31658 a 16.548868,16.095475 0 0 1 16.47952,-14.73097 16.548868,16.095475 0 0 1 16.54847,16.09586 16.548868,16.095475 0 0 1 -16.54847,16.09587 16.548868,16.095475 0 0 1 -1.13152,-0.0389 c -0.81528,-1.33699 -1.5818,-2.72722 -2.47166,-3.9833 -1.57205,-2.21902 -3.2583,-4.3124 -5.05471,-6.28347 -1.79641,-1.97106 -3.70239,-3.81907 -5.7124,-5.54798 -0.66885,-0.57531 -1.41753,-1.05819 -2.10923,-1.60711 z"
           id="path5816" />
        <g
           transform="translate(-175.49996,139.50023)"
           id="g5936">
          <path
             inkscape:connector-curvature="0"
             id="path5921"
             d="m 323.23144,675.8575 c -13.39625,0 -26.02272,1.07931 -37.67187,3.33442 v 11.35333 c 11.64929,-2.25501 24.27565,-3.33443 37.67187,-3.33442 15.1037,0 29.45807,1.37252 42.66602,4.25604 v -11.35498 c -13.20738,-2.88322 -27.56311,-4.25439 -42.66602,-4.25439 z"
             style="fill:#ff0000;fill-opacity:1;stroke:none;stroke-width:6;stroke-linecap:round;stroke-linejoin:round;stroke-miterlimit:4;stroke-dasharray:none;stroke-opacity:1" />
          <path
             inkscape:connector-curvature="0"
             style="fill:#e50000;fill-opacity:1;stroke:none;stroke-width:6;stroke-linecap:round;stroke-linejoin:round;stroke-miterlimit:4;stroke-dasharray:none;stroke-opacity:1"
             d="m 340.69531,-75.849609 a 15.875,7.8125 0 0 1 4.42969,5.412109 15.875,7.8125 0 0 1 -5.41406,5.863281 c 9.11632,0.65256 17.87758,1.865918 26.18554,3.679688 V -72.25 c -8.00689,-1.747935 -16.43955,-2.931738 -25.20117,-3.599609 z"
             transform="translate(0,752.36216)"
             id="path5926" />
        </g>
        <path
           sodipodi:nodetypes="sccsasccs"
           inkscape:connector-curvature="0"
           id="path5918"
           d="m 148.05961,789.03817 c -43.48918,0 -75.871835,19.48078 -83.283765,63.85644 12.32201,-10.51592 27.906385,-18.69449 45.284745,-22.65136 0,0 -2.44586,-12.49893 10.25,-16.02881 14.51339,-4.03521 18.40391,-3.94358 27.74902,-4 10.20029,-0.0616 15.07513,-0.0706 30.33887,4 14.18652,3.78334 12,17.11279 12,17.11279 17.21703,4.421 31.84526,10.7218 44.26307,21.56738 -7.27614,-46.02916 -42.37497,-63.85644 -86.60194,-63.85644 z"
           style="fill:#1a1a1a;fill-opacity:1;stroke:none;stroke-width:6;stroke-linecap:round;stroke-linejoin:round;stroke-miterlimit:4;stroke-dasharray:none;stroke-opacity:1" />
        <circle
           r="11.185298"
           cy="894.08136"
           cx="97.241508"
           id="path1046"
           style="fill:#ffaaaa;fill-opacity:0.57698957;stroke:none;stroke-width:8.41270065;stroke-linecap:round;stroke-linejoin:round;stroke-miterlimit:4;stroke-dasharray:none;stroke-dashoffset:0;stroke-opacity:1" />
        <circle
           r="11.185298"
           style="fill:#ffaaaa;fill-opacity:0.57698957;stroke:none;stroke-width:8.41270065;stroke-linecap:round;stroke-linejoin:round;stroke-miterlimit:4;stroke-dasharray:none;stroke-dashoffset:0;stroke-opacity:1"
           id="circle1048"
           cx="201.85071"
           cy="894.08136" />
        <path
           d="m 96.6014,864.0412 a 21.270994,21.270994 0 0 1 -6.780822,15.57209 21.270994,21.270994 0 0 1 -16.01925,5.64387"
           sodipodi:open="true"
           sodipodi:end="1.642744"
           sodipodi:start="0"
           sodipodi:ry="21.270994"
           sodipodi:rx="21.270994"
           sodipodi:cy="864.0412"
           sodipodi:cx="75.330406"
           sodipodi:type="arc"
           id="path1066"
           style="fill:none;fill-opacity:0.57698957;stroke:#e9afaf;stroke-width:2.98274612;stroke-linecap:round;stroke-linejoin:round;stroke-miterlimit:4;stroke-dasharray:none;stroke-dashoffset:0;stroke-opacity:1" />
        <path
           transform="scale(-1,1)"
           style="fill:none;fill-opacity:0.57698957;stroke:#e9afaf;stroke-width:2.98274612;stroke-linecap:round;stroke-linejoin:round;stroke-miterlimit:4;stroke-dasharray:none;stroke-dashoffset:0;stroke-opacity:1"
           id="path1068"
           sodipodi:type="arc"
           sodipodi:cx="-224.80095"
           sodipodi:cy="864.0412"
           sodipodi:rx="21.270994"
           sodipodi:ry="21.270994"
           sodipodi:start="0"
           sodipodi:end="1.642744"
           sodipodi:open="true"
           d="m -203.52995,864.0412 a 21.270994,21.270994 0 0 1 -6.78083,15.57209 21.270994,21.270994 0 0 1 -16.01925,5.64387" />
        <g
           transform="matrix(1.1733291,0,0,1.1733291,-128.72315,-42.560955)"
           id="layer1-8">
          <g
             id="g4372">
            <path
               sodipodi:nodetypes="cccccssscsscsssccccccsssscc"
               inkscape:connector-curvature="0"
               id="path4689"
               d="m 175.58026,764.63545 c -5.54684,-0.0595 -11.38885,0.15472 -19.43164,1.81641 l -12.20313,2.35937 1.9668,12.81641 c 1.78451,0.25007 4.24739,0.86604 5.41406,2.42773 3.00637,4.0243 1.02387,7.91461 1.70703,15.02149 2.27601,23.6772 10.1596,28.63254 22.36914,30.05664 6.39388,0.74577 19.44548,1.94528 28.36328,-1.2207 8.05947,-2.86125 15.53138,-8.41073 20.58985,-15.30664 5.34742,-7.28984 5.92198,-15.54177 9.24125,-21.92565 2.35233,-4.52418 6.56262,-3.55929 7.89063,0 2.51525,6.74129 3.73164,14.63581 9.07906,21.92565 5.05844,6.89591 12.53037,12.44539 20.58984,15.30664 8.9178,3.16598 21.9694,1.96647 28.36328,1.2207 12.20955,-1.4241 20.09508,-6.37944 22.37109,-30.05664 0.68316,-7.10688 -1.29933,-10.99719 1.70703,-15.02149 1.20511,-1.61315 3.80417,-2.22555 5.59766,-2.45898 l 1.95703,-12.75195 -12.37695,-2.39258 c -12.86847,-2.6587 -20.10562,-1.61027 -29.50781,-1.66797 -3.48845,-0.0214 -7.48048,0.0976 -11.19532,0.48828 -6.92544,0.72827 -13.78649,2.02979 -20.60351,3.45117 -6.80741,1.41938 -12.73274,5.19953 -19.68524,5.06446 -6.70646,-0.13029 -13.30888,-4.24134 -19.86945,-5.63868 -6.93041,-1.47611 -12.63435,-2.64733 -21.0625,-2.87695 -4.08528,-0.1113 -7.70687,-0.5097 -11.19531,-0.48828 -3.52582,0.0216 -6.74807,-0.11272 -10.07617,-0.14844 z"
               style="fill:#000000;fill-opacity:1;stroke:none;stroke-width:8;stroke-linecap:square;stroke-linejoin:round;stroke-miterlimit:4;stroke-dasharray:none;stroke-opacity:1" />
            <path
               sodipodi:nodetypes="ccsscacc"
               inkscape:connector-curvature="0"
               style="fill:#333333;fill-opacity:1;stroke:none;stroke-width:8;stroke-linecap:square;stroke-linejoin:round;stroke-miterlimit:4;stroke-dasharray:none;stroke-opacity:1"
               d="m 182.38959,769.63252 c -8.5978,0.14254 -21.1424,0.60165 -24.27344,10.4414 -2.7918,12.99576 -2.6597,27.92062 4.88867,38.88672 6.30362,9.15775 19.91341,7.36076 30.04899,7.00531 16.1072,-0.56488 29.94768,-13.11023 34.2264,-28.45648 1.64415,-6.60778 3.55218,-11.87093 0.59318,-16.51875 -5.06779,-7.96017 -17.13012,-10.03833 -26.06312,-11.05148 -6.40746,-0.26097 -12.95073,-0.37751 -19.42068,-0.30672 z"
               id="path4694" />
            <path
               inkscape:connector-curvature="0"
               style="fill:#b3b3b3;fill-opacity:1;stroke:none;stroke-width:8;stroke-linecap:square;stroke-linejoin:round;stroke-miterlimit:4;stroke-dasharray:none;stroke-opacity:1"
               id="path4707"
               d="m 157.46945,772.89466 a 3.4764421,1.4421878 0 0 1 -3.45866,1.44217 3.4764421,1.4421878 0 0 1 -3.49404,-1.42742 3.4764421,1.4421878 0 0 1 3.42293,-1.45677 3.4764421,1.4421878 0 0 1 3.52905,1.41252" />
            <path
               sodipodi:nodetypes="ccsscacc"
               inkscape:connector-curvature="0"
               id="path4810"
               d="m 292.5339,769.63252 c 8.5978,0.14254 21.1424,0.60165 24.27344,10.4414 2.7918,12.99576 2.6597,27.92062 -4.88867,38.88672 -6.30362,9.15775 -19.91341,7.36076 -30.04899,7.00531 -16.1072,-0.56488 -29.94768,-13.11023 -34.2264,-28.45648 -1.64415,-6.60778 -3.55218,-11.87093 -0.59318,-16.51875 5.06779,-7.96017 17.13012,-10.03833 26.06312,-11.05148 6.40746,-0.26097 12.95073,-0.37751 19.42068,-0.30672 z"
               style="fill:#333333;fill-opacity:1;stroke:none;stroke-width:8;stroke-linecap:square;stroke-linejoin:round;stroke-miterlimit:4;stroke-dasharray:none;stroke-opacity:1" />
            <path
               inkscape:connector-curvature="0"
               d="m 317.45403,772.89466 a 3.4764421,1.4421878 0 0 0 3.45867,1.44217 3.4764421,1.4421878 0 0 0 3.49404,-1.42742 3.4764421,1.4421878 0 0 0 -3.42293,-1.45677 3.4764421,1.4421878 0 0 0 -3.52905,1.41252"
               id="path4812"
               style="fill:#b3b3b3;fill-opacity:1;stroke:none;stroke-width:8;stroke-linecap:square;stroke-linejoin:round;stroke-miterlimit:4;stroke-dasharray:none;stroke-opacity:1" />
            <path
               sodipodi:nodetypes="ccccc"
               inkscape:connector-curvature="0"
               id="rect4338"
               transform="translate(143.51971,764.62764)"
               d="M 52.107422,5.1132812 35.755859,61.623047 c 4.985062,0.135233 9.950253,-0.03828 14.398438,-0.322266 L 65.994141,6.5664062 C 61.265599,5.4044907 56.591962,5.2279851 52.107422,5.1132812 Z"
               style="fill:#ffffff;fill-opacity:1;stroke:none;stroke-width:6;stroke-linecap:round;stroke-linejoin:round;stroke-miterlimit:4;stroke-dasharray:none;stroke-opacity:1" />
            <path
               inkscape:connector-curvature="0"
               id="rect4348"
               transform="translate(143.51971,764.62764)"
               d="m 42.171875,4.9921875 c -1.101666,0.00143 -2.204272,-2.999e-4 -3.302734,0.011719 -0.921466,0.015277 -1.904704,0.042464 -2.900391,0.076172 L 20.916016,56.091797 c 1.473427,1.556973 3.213181,2.703102 5.134765,3.535156 z"
               style="fill:#ffffff;fill-opacity:1;stroke:none;stroke-width:6;stroke-linecap:round;stroke-linejoin:round;stroke-miterlimit:4;stroke-dasharray:none;stroke-opacity:1" />
          </g>
        </g>
      </g>
    </g>
    <g
       id="g3157"
       transform="matrix(1.0750625,0,0,0.99750425,0,-0.06899425)">
      <rect
         style="fill:#ffffff;fill-opacity:1;fill-rule:nonzero;stroke:none;stroke-width:27.50116158;stroke-linecap:butt;stroke-linejoin:miter;stroke-miterlimit:4;stroke-dasharray:none;stroke-dashoffset:0;stroke-opacity:1"
         id="rect1564"
         width="60"
         height="1080"
         x="0"
         y="-27.637821" />
      <rect
         style="fill:url(#linearGradient3110);fill-opacity:1;fill-rule:nonzero;stroke:none;stroke-width:27.50116158;stroke-linecap:butt;stroke-linejoin:miter;stroke-miterlimit:4;stroke-dasharray:none;stroke-dashoffset:0;stroke-opacity:1"
         id="rect3108"
         width="60"
         height="1080"
         x="-60"
         y="-1055.0643"
         transform="scale(-1)" />
    </g>
    <g
       transform="matrix(-1.0750625,0,0,-0.99750425,1920,1024.7933)"
       id="g3163">
      <rect
         y="-27.637821"
         x="0"
         height="1080"
         width="60"
         id="rect3159"
         style="fill:#ffffff;fill-opacity:1;fill-rule:nonzero;stroke:none;stroke-width:27.50116158;stroke-linecap:butt;stroke-linejoin:miter;stroke-miterlimit:4;stroke-dasharray:none;stroke-dashoffset:0;stroke-opacity:1" />
      <rect
         transform="scale(-1)"
         y="-1055.0643"
         x="-60"
         height="1080"
         width="60"
         id="rect3161"
         style="fill:url(#linearGradient3165);fill-opacity:1;fill-rule:nonzero;stroke:none;stroke-width:27.50116158;stroke-linecap:butt;stroke-linejoin:miter;stroke-miterlimit:4;stroke-dasharray:none;stroke-dashoffset:0;stroke-opacity:1" />
    </g>
    <rect
       y="-27.63784"
       x="0"
       height="60"
       width="1920"
       id="rect3167"
       style="fill:#ff00ff;fill-opacity:1;fill-rule:nonzero;stroke:none;stroke-width:22.18061256;stroke-linecap:butt;stroke-linejoin:miter;stroke-miterlimit:4;stroke-dasharray:none;stroke-dashoffset:0;stroke-opacity:1" />
    <rect
       style="fill:#ffffff;fill-opacity:1;fill-rule:nonzero;stroke:none;stroke-width:10;stroke-linecap:butt;stroke-linejoin:miter;stroke-miterlimit:4;stroke-dasharray:none;stroke-dashoffset:0;stroke-opacity:1"
       id="rect3169"
       width="107.18932"
       height="39.633026"
       x="-284.63721"
       y="118.28376" />
    <g
       id="g3195">
      <rect
         y="-27.63784"
         x="1680"
         height="65"
         width="240"
         id="rect3171"
         style="fill:#ffffff;fill-opacity:1;fill-rule:nonzero;stroke:none;stroke-width:12.23700714;stroke-linecap:butt;stroke-linejoin:miter;stroke-miterlimit:4;stroke-dasharray:none;stroke-dashoffset:0;stroke-opacity:1" />
      <rect
         style="fill:#000000;fill-opacity:1;fill-rule:nonzero;stroke:none;stroke-width:12.23700714;stroke-linecap:butt;stroke-linejoin:miter;stroke-miterlimit:4;stroke-dasharray:none;stroke-dashoffset:0;stroke-opacity:1"
         id="rect3173"
         width="240"
         height="65"
         x="1440"
         y="-27.63784" />
      <rect
         y="-27.63784"
         x="1200"
         height="65"
         width="240"
         id="rect3175"
         style="fill:#0000ff;fill-opacity:1;fill-rule:nonzero;stroke:none;stroke-width:12.23700714;stroke-linecap:butt;stroke-linejoin:miter;stroke-miterlimit:4;stroke-dasharray:none;stroke-dashoffset:0;stroke-opacity:1" />
      <rect
         style="fill:#ff0000;fill-opacity:1;fill-rule:nonzero;stroke:none;stroke-width:12.23700714;stroke-linecap:butt;stroke-linejoin:miter;stroke-miterlimit:4;stroke-dasharray:none;stroke-dashoffset:0;stroke-opacity:1"
         id="rect3177"
         width="240"
         height="65"
         x="960"
         y="-27.63784" />
      <rect
         y="-27.63784"
         x="720"
         height="65"
         width="240"
         id="rect3179"
         style="fill:#ff00ff;fill-opacity:1;fill-rule:nonzero;stroke:none;stroke-width:12.23700714;stroke-linecap:butt;stroke-linejoin:miter;stroke-miterlimit:4;stroke-dasharray:none;stroke-dashoffset:0;stroke-opacity:1" />
      <rect
         style="fill:#00ff00;fill-opacity:1;fill-rule:nonzero;stroke:none;stroke-width:12.23700714;stroke-linecap:butt;stroke-linejoin:miter;stroke-miterlimit:4;stroke-dasharray:none;stroke-dashoffset:0;stroke-opacity:1"
         id="rect3181"
         width="240"
         height="65"
         x="480"
         y="-27.63784" />
      <rect
         y="-27.63784"
         x="239.99998"
         height="65"
         width="240"
         id="rect3183"
         style="fill:#00ffff;fill-opacity:1;fill-rule:nonzero;stroke:none;stroke-width:12.23700714;stroke-linecap:butt;stroke-linejoin:miter;stroke-miterlimit:4;stroke-dasharray:none;stroke-dashoffset:0;stroke-opacity:1" />
      <rect
         style="fill:#ffff00;fill-opacity:1;fill-rule:nonzero;stroke:none;stroke-width:12.23700714;stroke-linecap:butt;stroke-linejoin:miter;stroke-miterlimit:4;stroke-dasharray:none;stroke-dashoffset:0;stroke-opacity:1"
         id="rect3185"
         width="240"
         height="65"
         x="-1.3588626e-05"
         y="-27.63784" />
    </g>
    <g
       id="g3213"
       transform="rotate(180,959.99999,512.36216)">
      <rect
         style="fill:#ffffff;fill-opacity:1;fill-rule:nonzero;stroke:none;stroke-width:12.23700714;stroke-linecap:butt;stroke-linejoin:miter;stroke-miterlimit:4;stroke-dasharray:none;stroke-dashoffset:0;stroke-opacity:1"
         id="rect3197"
         width="240"
         height="65"
         x="1680"
         y="-27.63784" />
      <rect
         y="-27.63784"
         x="1440"
         height="65"
         width="240"
         id="rect3199"
         style="fill:#000000;fill-opacity:1;fill-rule:nonzero;stroke:none;stroke-width:12.23700714;stroke-linecap:butt;stroke-linejoin:miter;stroke-miterlimit:4;stroke-dasharray:none;stroke-dashoffset:0;stroke-opacity:1" />
      <rect
         style="fill:#0000ff;fill-opacity:1;fill-rule:nonzero;stroke:none;stroke-width:12.23700714;stroke-linecap:butt;stroke-linejoin:miter;stroke-miterlimit:4;stroke-dasharray:none;stroke-dashoffset:0;stroke-opacity:1"
         id="rect3201"
         width="240"
         height="65"
         x="1200"
         y="-27.63784" />
      <rect
         y="-27.63784"
         x="960"
         height="65"
         width="240"
         id="rect3203"
         style="fill:#ff0000;fill-opacity:1;fill-rule:nonzero;stroke:none;stroke-width:12.23700714;stroke-linecap:butt;stroke-linejoin:miter;stroke-miterlimit:4;stroke-dasharray:none;stroke-dashoffset:0;stroke-opacity:1" />
      <rect
         style="fill:#ff00ff;fill-opacity:1;fill-rule:nonzero;stroke:none;stroke-width:12.23700714;stroke-linecap:butt;stroke-linejoin:miter;stroke-miterlimit:4;stroke-dasharray:none;stroke-dashoffset:0;stroke-opacity:1"
         id="rect3205"
         width="240"
         height="65"
         x="720"
         y="-27.63784" />
      <rect
         y="-27.63784"
         x="480"
         height="65"
         width="240"
         id="rect3207"
         style="fill:#00ff00;fill-opacity:1;fill-rule:nonzero;stroke:none;stroke-width:12.23700714;stroke-linecap:butt;stroke-linejoin:miter;stroke-miterlimit:4;stroke-dasharray:none;stroke-dashoffset:0;stroke-opacity:1" />
      <rect
         style="fill:#00ffff;fill-opacity:1;fill-rule:nonzero;stroke:none;stroke-width:12.23700714;stroke-linecap:butt;stroke-linejoin:miter;stroke-miterlimit:4;stroke-dasharray:none;stroke-dashoffset:0;stroke-opacity:1"
         id="rect3209"
         width="240"
         height="65"
         x="239.99998"
         y="-27.63784" />
      <rect
         y="-27.63784"
         x="-1.3588626e-05"
         height="65"
         width="240"
         id="rect3211"
         style="fill:#ffff00;fill-opacity:1;fill-rule:nonzero;stroke:none;stroke-width:12.23700714;stroke-linecap:butt;stroke-linejoin:miter;stroke-miterlimit:4;stroke-dasharray:none;stroke-dashoffset:0;stroke-opacity:1" />
    </g>
    <rect
       style="fill:#ffffff;fill-opacity:1;fill-rule:nonzero;stroke:none;stroke-width:11.90656471;stroke-linecap:butt;stroke-linejoin:miter;stroke-miterlimit:4;stroke-dasharray:none;stroke-dashoffset:0;stroke-opacity:1"
       id="rect3215"
       width="136"
       height="496"
       x="530.54211"
       y="265.41968" />
    <rect
       style="fill:#b3b3b3;fill-opacity:1;fill-rule:nonzero;stroke:none;stroke-width:10.46143246;stroke-linecap:butt;stroke-linejoin:miter;stroke-miterlimit:4;stroke-dasharray:none;stroke-dashoffset:0;stroke-opacity:1"
       id="rect3217"
       width="108"
       height="470"
       x="544.54211"
       y="278.41968" />
    <rect
       style="fill:#ffffff;fill-opacity:1;fill-rule:nonzero;stroke:none;stroke-width:10.79266357;stroke-linecap:butt;stroke-linejoin:miter;stroke-miterlimit:4;stroke-dasharray:none;stroke-dashoffset:0;stroke-opacity:1"
       id="rect3219"
       width="108"
       height="94"
       x="544.54211"
       y="654.41968" />
    <rect
       y="560.41968"
       x="544.54211"
       height="94"
       width="108"
       id="rect3221"
       style="fill:#e6e6e6;fill-opacity:1;fill-rule:nonzero;stroke:none;stroke-width:10.79266357;stroke-linecap:butt;stroke-linejoin:miter;stroke-miterlimit:4;stroke-dasharray:none;stroke-dashoffset:0;stroke-opacity:1" />
    <rect
       style="fill:#999999;fill-opacity:1;fill-rule:nonzero;stroke:none;stroke-width:10.79266357;stroke-linecap:butt;stroke-linejoin:miter;stroke-miterlimit:4;stroke-dasharray:none;stroke-dashoffset:0;stroke-opacity:1"
       id="rect3223"
       width="108"
       height="94"
       x="544.54211"
       y="466.41968" />
    <rect
       y="372.41968"
       x="544.54211"
       height="94"
       width="108"
       id="rect3225"
       style="fill:#333333;fill-opacity:1;fill-rule:nonzero;stroke:none;stroke-width:10.79266357;stroke-linecap:butt;stroke-linejoin:miter;stroke-miterlimit:4;stroke-dasharray:none;stroke-dashoffset:0;stroke-opacity:1" />
    <rect
       style="fill:#000000;fill-opacity:1;fill-rule:nonzero;stroke:none;stroke-width:10.79266357;stroke-linecap:butt;stroke-linejoin:miter;stroke-miterlimit:4;stroke-dasharray:none;stroke-dashoffset:0;stroke-opacity:1"
       id="rect3227"
       width="108"
       height="94"
       x="544.54211"
       y="278.41968" />
  </g>
</svg>
