<?xml version="1.0" encoding="UTF-8" standalone="no"?>
<svg
   xmlns:dc="http://purl.org/dc/elements/1.1/"
   xmlns:cc="http://creativecommons.org/ns#"
   xmlns:rdf="http://www.w3.org/1999/02/22-rdf-syntax-ns#"
   xmlns:svg="http://www.w3.org/2000/svg"
   xmlns="http://www.w3.org/2000/svg"
   version="1.1"
   id="svg4938"
   viewBox="0 0 300 300"
   height="300"
   width="300">
  <defs
     id="defs4940" />
  <metadata
     id="metadata4943">
    <rdf:RDF>
      <cc:Work
         rdf:about="">
        <dc:format>image/svg+xml</dc:format>
        <dc:type
           rdf:resource="http://purl.org/dc/dcmitype/StillImage" />
        <dc:title></dc:title>
      </cc:Work>
    </rdf:RDF>
  </metadata>
  <g
     transform="translate(0,-752.36216)"
     id="layer1">
    <g
       transform="matrix(1.2335313,0,0,1.2335313,-35.029693,-212.83637)"
       id="g5691">
      <path
         style="fill:#784421;fill-opacity:1;stroke:none;stroke-width:6;stroke-linecap:round;stroke-linejoin:round;stroke-miterlimit:4;stroke-dasharray:none;stroke-opacity:1"
         d="m 250.42825,903.36218 c 2e-5,66.27108 -44.75411,114.99442 -102.42825,114.99442 -57.674143,0 -98.428271,-48.72334 -98.428251,-114.99442 4e-6,-66.27106 40.754125,-92.99437 98.428251,-92.99437 57.67413,0 102.42825,26.72331 102.42825,92.99437 z"
         id="path5634" />
      <g
         id="layer1-8"
         transform="matrix(1.2694794,0,0,1.2694794,-151.56357,-109.80453)">
        <g
           id="g4372">
          <path
             style="fill:#000000;fill-opacity:1;stroke:none;stroke-width:8;stroke-linecap:square;stroke-linejoin:round;stroke-miterlimit:4;stroke-dasharray:none;stroke-opacity:1"
             d="m 175.58026,764.63545 c -5.54684,-0.0595 -11.38885,0.15472 -19.43164,1.81641 l -12.20313,2.35937 1.9668,12.81641 c 1.78451,0.25007 4.24739,0.86604 5.41406,2.42773 3.00637,4.0243 1.02387,7.91461 1.70703,15.02149 2.27601,23.6772 10.1596,28.63254 22.36914,30.05664 6.39388,0.74577 19.44548,1.94528 28.36328,-1.2207 8.05947,-2.86125 15.53138,-8.41073 20.58985,-15.30664 5.34742,-7.28984 5.92198,-15.70821 9.24125,-22.09209 2.35233,-4.52418 6.56262,-3.22641 7.89063,0.33288 2.51525,6.74129 3.73164,14.46937 9.07906,21.75921 5.05844,6.89591 12.53037,12.44539 20.58984,15.30664 8.9178,3.16598 21.9694,1.96647 28.36328,1.2207 12.20955,-1.4241 20.09508,-6.37944 22.37109,-30.05664 0.68316,-7.10688 -1.29933,-10.99719 1.70703,-15.02149 1.20511,-1.61315 3.80417,-2.22555 5.59766,-2.45898 l 1.95703,-12.75195 -12.37695,-2.39258 c -12.86847,-2.6587 -20.10562,-1.61027 -29.50781,-1.66797 -3.48845,-0.0214 -7.48048,0.0976 -11.19532,0.48828 -6.92544,0.72827 -13.78649,2.02979 -20.60351,3.45117 -6.80741,1.41938 -13.28578,5.19953 -20.23828,5.06446 -6.70646,-0.13029 -12.75584,-4.24134 -19.31641,-5.63868 -6.93041,-1.47611 -12.63435,-2.64733 -21.0625,-2.87695 -4.08528,-0.1113 -7.70687,-0.5097 -11.19531,-0.48828 -3.52582,0.0216 -6.74807,-0.11272 -10.07617,-0.14844 z"
             id="path4689" />
          <path
             id="path4694"
             d="m 182.38959,769.63252 c -8.5978,0.14254 -21.1424,0.60165 -24.27344,10.4414 -2.7918,12.99576 -2.6597,27.92062 4.88867,38.88672 6.30362,9.15775 19.91341,7.36076 30.04899,7.00531 16.1072,-0.56488 29.94768,-13.11023 34.2264,-28.45648 1.64415,-6.60778 3.32868,-9.96905 0.59318,-16.51875 -6.52294,-7.63018 -17.13012,-10.03833 -26.06312,-11.05148 -6.40746,-0.26097 -12.95073,-0.37751 -19.42068,-0.30672 z"
             style="fill:#333333;fill-opacity:1;stroke:none;stroke-width:8;stroke-linecap:square;stroke-linejoin:round;stroke-miterlimit:4;stroke-dasharray:none;stroke-opacity:1" />
          <path
             d="m 157.46945,772.89466 a 3.4764421,1.4421878 0 0 1 -3.45866,1.44217 3.4764421,1.4421878 0 0 1 -3.49404,-1.42742 3.4764421,1.4421878 0 0 1 3.42293,-1.45677 3.4764421,1.4421878 0 0 1 3.52905,1.41252"
             id="path4707"
             style="fill:#b3b3b3;fill-opacity:1;stroke:none;stroke-width:8;stroke-linecap:square;stroke-linejoin:round;stroke-miterlimit:4;stroke-dasharray:none;stroke-opacity:1" />
          <path
             style="fill:#333333;fill-opacity:1;stroke:none;stroke-width:8;stroke-linecap:square;stroke-linejoin:round;stroke-miterlimit:4;stroke-dasharray:none;stroke-opacity:1"
             d="m 292.5339,769.63252 c 8.5978,0.14254 21.1424,0.60165 24.27344,10.4414 2.7918,12.99576 2.6597,27.92062 -4.88867,38.88672 -6.30362,9.15775 -19.91341,7.36076 -30.04899,7.00531 -16.1072,-0.56488 -29.94768,-13.11023 -34.2264,-28.45648 -1.64415,-6.60778 -3.32868,-9.96905 -0.59318,-16.51875 6.52294,-7.63018 17.13012,-10.03833 26.06312,-11.05148 6.40746,-0.26097 12.95073,-0.37751 19.42068,-0.30672 z"
             id="path4810" />
          <path
             style="fill:#b3b3b3;fill-opacity:1;stroke:none;stroke-width:8;stroke-linecap:square;stroke-linejoin:round;stroke-miterlimit:4;stroke-dasharray:none;stroke-opacity:1"
             id="path4812"
             d="m 317.45403,772.89466 a 3.4764421,1.4421878 0 0 0 3.45867,1.44217 3.4764421,1.4421878 0 0 0 3.49404,-1.42742 3.4764421,1.4421878 0 0 0 -3.42293,-1.45677 3.4764421,1.4421878 0 0 0 -3.52905,1.41252" />
          <path
             style="fill:#ffffff;fill-opacity:1;stroke:none;stroke-width:6;stroke-linecap:round;stroke-linejoin:round;stroke-miterlimit:4;stroke-dasharray:none;stroke-opacity:1"
             d="M 52.107422,5.1132812 35.755859,61.623047 c 4.674638,0.257133 9.529586,-0.13619 13.777344,-0.285156 0.207893,-0.0073 0.413972,-0.02585 0.621094,-0.03711 L 65.994141,6.5664062 C 63.379652,5.9883415 60.770668,5.5937336 58.291016,5.3125 56.242327,5.2290588 54.177043,5.1657899 52.107422,5.1132812 Z"
             transform="translate(143.51971,764.62764)"
             id="rect4338" />
          <path
             style="fill:#ffffff;fill-opacity:1;stroke:none;stroke-width:6;stroke-linecap:round;stroke-linejoin:round;stroke-miterlimit:4;stroke-dasharray:none;stroke-opacity:1"
             d="m 42.171875,4.9921875 c -1.101666,0.00143 -2.204272,-2.999e-4 -3.302734,0.011719 -0.921466,0.015277 -1.904704,0.042464 -2.900391,0.076172 L 20.916016,56.091797 c 1.473427,1.556973 3.213181,2.703102 5.134765,3.535156 L 42.171875,4.9921875 Z"
             transform="translate(143.51971,764.62764)"
             id="rect4348" />
        </g>
      </g>
      <path
         style="fill:#e9c6af;fill-opacity:1;stroke:none;stroke-width:6;stroke-linecap:round;stroke-linejoin:round;stroke-miterlimit:4;stroke-dasharray:none;stroke-opacity:1"
         d="m 217,972.86218 c 2e-5,21.53911 -30.44462,42.00002 -68,42.00002 -37.55538,0 -66.000019,-20.46091 -66,-42.00002 0,-21.53911 28.44464,-36 66,-36 37.55536,0 68,14.46089 68,36 z"
         id="path5639" />
      <path
         style="fill:#000000;fill-opacity:1;stroke:none;stroke-width:6;stroke-linecap:round;stroke-linejoin:round;stroke-miterlimit:4;stroke-dasharray:none;stroke-opacity:1"
         d="m 181.5,944.36218 c 0,8.28427 -20.59974,26.5 -32.75,26.5 -12.15026,0 -34.75,-18.21573 -34.75,-26.5 0,-8.28427 22.59974,-13.5 34.75,-13.5 12.15026,0 32.75,5.21573 32.75,13.5 z"
         id="path5636" />
      <g
         id="g5681">
        <ellipse
           ry="33.289474"
           rx="34.5"
           cy="823.07269"
           cx="69"
           id="path5657"
           style="fill:#784421;fill-opacity:1;stroke:none;stroke-width:6;stroke-linecap:round;stroke-linejoin:round;stroke-miterlimit:4;stroke-dasharray:none;stroke-opacity:1" />
        <path
           transform="translate(0,752.36216)"
           id="ellipse5659"
           d="M 69,47.310547 A 24.25,23.399124 0 0 0 44.75,70.710938 24.25,23.399124 0 0 0 64.720703,93.720703 c 0.276316,-0.40734 0.503874,-0.867778 0.787109,-1.267578 1.70087,-2.400855 3.527087,-4.666237 5.470704,-6.798828 1.943616,-2.132591 4.004963,-4.133318 6.179687,-6.003906 2.174725,-1.870589 4.461274,-3.611714 6.855469,-5.226563 2.394195,-1.614848 4.896019,-3.10338 7.498047,-4.46875 0.539935,-0.283322 1.133058,-0.500695 1.68164,-0.773437 A 24.25,23.399124 0 0 0 69,47.310547 Z"
           style="fill:#e9c6af;fill-opacity:1;stroke:none;stroke-width:6;stroke-linecap:round;stroke-linejoin:round;stroke-miterlimit:4;stroke-dasharray:none;stroke-opacity:1" />
      </g>
      <g
         id="g5685"
         transform="matrix(-1,0,0,1,300,0)">
        <ellipse
           style="fill:#784421;fill-opacity:1;stroke:none;stroke-width:6;stroke-linecap:round;stroke-linejoin:round;stroke-miterlimit:4;stroke-dasharray:none;stroke-opacity:1"
           id="ellipse5687"
           cx="69"
           cy="823.07269"
           rx="34.5"
           ry="33.289474" />
        <path
           style="fill:#e9c6af;fill-opacity:1;stroke:none;stroke-width:6;stroke-linecap:round;stroke-linejoin:round;stroke-miterlimit:4;stroke-dasharray:none;stroke-opacity:1"
           d="M 69,47.310547 A 24.25,23.399124 0 0 0 44.75,70.710938 24.25,23.399124 0 0 0 64.720703,93.720703 c 0.276316,-0.40734 0.503874,-0.867778 0.787109,-1.267578 1.70087,-2.400855 3.527087,-4.666237 5.470704,-6.798828 1.943616,-2.132591 4.004963,-4.133318 6.179687,-6.003906 2.174725,-1.870589 4.461274,-3.611714 6.855469,-5.226563 2.394195,-1.614848 4.896019,-3.10338 7.498047,-4.46875 0.539935,-0.283322 1.133058,-0.500695 1.68164,-0.773437 A 24.25,23.399124 0 0 0 69,47.310547 Z"
           id="path5689"
           transform="translate(0,752.36216)" />
      </g>
    </g>
  </g>
</svg>
