<?xml version="1.0" encoding="UTF-8" standalone="no"?>
<svg
   xmlns:dc="http://purl.org/dc/elements/1.1/"
   xmlns:cc="http://creativecommons.org/ns#"
   xmlns:rdf="http://www.w3.org/1999/02/22-rdf-syntax-ns#"
   xmlns:svg="http://www.w3.org/2000/svg"
   xmlns="http://www.w3.org/2000/svg"
   xmlns:sodipodi="http://sodipodi.sourceforge.net/DTD/sodipodi-0.dtd"
   xmlns:inkscape="http://www.inkscape.org/namespaces/inkscape"
   version="1.1"
   id="svg4938"
   viewBox="0 0 300 300"
   height="300"
   width="300"
   sodipodi:docname="bear-with-cap--scaled.svg"
   inkscape:version="0.92.2 5c3e80d, 2017-08-06"
   inkscape:export-filename="/Users/jh3y/Google Drive/Personal/bear-with-cap--scaled.png"
   inkscape:export-xdpi="96"
   inkscape:export-ydpi="96">
  <sodipodi:namedview
     pagecolor="#ffffff"
     bordercolor="#666666"
     borderopacity="1"
     objecttolerance="10"
     gridtolerance="10"
     guidetolerance="10"
     inkscape:pageopacity="0"
     inkscape:pageshadow="2"
     inkscape:window-width="1859"
     inkscape:window-height="1017"
     id="namedview945"
     showgrid="false"
     inkscape:zoom="0.5"
     inkscape:cx="150"
     inkscape:cy="150"
     inkscape:window-x="0"
     inkscape:window-y="0"
     inkscape:window-maximized="0"
     inkscape:current-layer="svg4938" />
  <defs
     id="defs4940" />
  <metadata
     id="metadata4943">
    <rdf:RDF>
      <cc:Work
         rdf:about="">
        <dc:format>image/svg+xml</dc:format>
        <dc:type
           rdf:resource="http://purl.org/dc/dcmitype/StillImage" />
        <dc:title></dc:title>
      </cc:Work>
    </rdf:RDF>
  </metadata>
  <g
     transform="matrix(0.8391699,0,0,0.8391699,24.124515,-607.23516)"
     id="layer1">
    <g
       transform="matrix(1.3410461,0,0,1.3410461,-51.156929,-297.33196)"
       id="g5973">
      <path
         style="fill:#803300;fill-opacity:1;stroke:none;stroke-width:6;stroke-linecap:round;stroke-linejoin:round;stroke-miterlimit:4;stroke-dasharray:none;stroke-opacity:1"
         d="m 242.82182,893.86855 c 2e-5,61.25171 -41.36443,106.28475 -94.67034,106.28475 -53.305903,0 -90.973315,-45.03304 -90.973296,-106.28475 4e-6,-61.2517 37.667409,-85.95098 90.973296,-85.95098 53.3059,0 94.67034,24.69928 94.67034,85.95098 z"
         id="path5634"
         inkscape:connector-curvature="0" />
      <g
         id="layer1-8"
         transform="matrix(1.1733291,0,0,1.1733291,-128.72315,-42.560955)">
        <g
           id="g4372">
          <path
             style="fill:#000000;fill-opacity:1;stroke:none;stroke-width:8;stroke-linecap:square;stroke-linejoin:round;stroke-miterlimit:4;stroke-dasharray:none;stroke-opacity:1"
             d="m 175.58026,764.63545 c -5.54684,-0.0595 -11.38885,0.15472 -19.43164,1.81641 l -12.20313,2.35937 1.9668,12.81641 c 1.78451,0.25007 4.24739,0.86604 5.41406,2.42773 3.00637,4.0243 1.02387,7.91461 1.70703,15.02149 2.27601,23.6772 10.1596,28.63254 22.36914,30.05664 6.39388,0.74577 19.44548,1.94528 28.36328,-1.2207 8.05947,-2.86125 15.53138,-8.41073 20.58985,-15.30664 5.34742,-7.28984 5.92198,-15.70821 9.24125,-22.09209 2.35233,-4.52418 6.56262,-3.22641 7.89063,0.33288 2.51525,6.74129 3.73164,14.46937 9.07906,21.75921 5.05844,6.89591 12.53037,12.44539 20.58984,15.30664 8.9178,3.16598 21.9694,1.96647 28.36328,1.2207 12.20955,-1.4241 20.09508,-6.37944 22.37109,-30.05664 0.68316,-7.10688 -1.29933,-10.99719 1.70703,-15.02149 1.20511,-1.61315 3.80417,-2.22555 5.59766,-2.45898 l 1.95703,-12.75195 -12.37695,-2.39258 c -12.86847,-2.6587 -20.10562,-1.61027 -29.50781,-1.66797 -3.48845,-0.0214 -7.48048,0.0976 -11.19532,0.48828 -6.92544,0.72827 -13.78649,2.02979 -20.60351,3.45117 -6.80741,1.41938 -13.28578,5.19953 -20.23828,5.06446 -6.70646,-0.13029 -12.75584,-4.24134 -19.31641,-5.63868 -6.93041,-1.47611 -12.63435,-2.64733 -21.0625,-2.87695 -4.08528,-0.1113 -7.70687,-0.5097 -11.19531,-0.48828 -3.52582,0.0216 -6.74807,-0.11272 -10.07617,-0.14844 z"
             id="path4689"
             inkscape:connector-curvature="0" />
          <path
             id="path4694"
             d="m 182.38959,769.63252 c -8.5978,0.14254 -21.1424,0.60165 -24.27344,10.4414 -2.7918,12.99576 -2.6597,27.92062 4.88867,38.88672 6.30362,9.15775 19.91341,7.36076 30.04899,7.00531 16.1072,-0.56488 29.94768,-13.11023 34.2264,-28.45648 1.64415,-6.60778 3.32868,-9.96905 0.59318,-16.51875 -6.52294,-7.63018 -17.13012,-10.03833 -26.06312,-11.05148 -6.40746,-0.26097 -12.95073,-0.37751 -19.42068,-0.30672 z"
             style="fill:#333333;fill-opacity:1;stroke:none;stroke-width:8;stroke-linecap:square;stroke-linejoin:round;stroke-miterlimit:4;stroke-dasharray:none;stroke-opacity:1"
             inkscape:connector-curvature="0" />
          <path
             d="m 157.46945,772.89466 a 3.4764421,1.4421878 0 0 1 -3.45866,1.44217 3.4764421,1.4421878 0 0 1 -3.49404,-1.42742 3.4764421,1.4421878 0 0 1 3.42293,-1.45677 3.4764421,1.4421878 0 0 1 3.52905,1.41252"
             id="path4707"
             style="fill:#b3b3b3;fill-opacity:1;stroke:none;stroke-width:8;stroke-linecap:square;stroke-linejoin:round;stroke-miterlimit:4;stroke-dasharray:none;stroke-opacity:1"
             inkscape:connector-curvature="0" />
          <path
             style="fill:#333333;fill-opacity:1;stroke:none;stroke-width:8;stroke-linecap:square;stroke-linejoin:round;stroke-miterlimit:4;stroke-dasharray:none;stroke-opacity:1"
             d="m 292.5339,769.63252 c 8.5978,0.14254 21.1424,0.60165 24.27344,10.4414 2.7918,12.99576 2.6597,27.92062 -4.88867,38.88672 -6.30362,9.15775 -19.91341,7.36076 -30.04899,7.00531 -16.1072,-0.56488 -29.94768,-13.11023 -34.2264,-28.45648 -1.64415,-6.60778 -3.32868,-9.96905 -0.59318,-16.51875 6.52294,-7.63018 17.13012,-10.03833 26.06312,-11.05148 6.40746,-0.26097 12.95073,-0.37751 19.42068,-0.30672 z"
             id="path4810"
             inkscape:connector-curvature="0" />
          <path
             style="fill:#b3b3b3;fill-opacity:1;stroke:none;stroke-width:8;stroke-linecap:square;stroke-linejoin:round;stroke-miterlimit:4;stroke-dasharray:none;stroke-opacity:1"
             id="path4812"
             d="m 317.45403,772.89466 a 3.4764421,1.4421878 0 0 0 3.45867,1.44217 3.4764421,1.4421878 0 0 0 3.49404,-1.42742 3.4764421,1.4421878 0 0 0 -3.42293,-1.45677 3.4764421,1.4421878 0 0 0 -3.52905,1.41252"
             inkscape:connector-curvature="0" />
          <path
             style="fill:#ffffff;fill-opacity:1;stroke:none;stroke-width:6;stroke-linecap:round;stroke-linejoin:round;stroke-miterlimit:4;stroke-dasharray:none;stroke-opacity:1"
             d="M 52.107422,5.1132812 35.755859,61.623047 c 4.674638,0.257133 9.529586,-0.13619 13.777344,-0.285156 0.207893,-0.0073 0.413972,-0.02585 0.621094,-0.03711 L 65.994141,6.5664062 C 63.379652,5.9883415 60.770668,5.5937336 58.291016,5.3125 56.242327,5.2290588 54.177043,5.1657899 52.107422,5.1132812 Z"
             transform="translate(143.51971,764.62764)"
             id="rect4338"
             inkscape:connector-curvature="0" />
          <path
             style="fill:#ffffff;fill-opacity:1;stroke:none;stroke-width:6;stroke-linecap:round;stroke-linejoin:round;stroke-miterlimit:4;stroke-dasharray:none;stroke-opacity:1"
             d="m 42.171875,4.9921875 c -1.101666,0.00143 -2.204272,-2.999e-4 -3.302734,0.011719 -0.921466,0.015277 -1.904704,0.042464 -2.900391,0.076172 L 20.916016,56.091797 c 1.473427,1.556973 3.213181,2.703102 5.134765,3.535156 z"
             transform="translate(143.51971,764.62764)"
             id="rect4348"
             inkscape:connector-curvature="0" />
        </g>
      </g>
      <path
         style="fill:#e9c6af;fill-opacity:1;stroke:none;stroke-width:6;stroke-linecap:round;stroke-linejoin:round;stroke-miterlimit:4;stroke-dasharray:none;stroke-opacity:1"
         d="m 211.92542,958.10462 c 2e-5,19.90778 -28.13874,38.8189 -62.84968,38.8189 -34.71094,0 -61.001177,-18.91112 -61.001159,-38.8189 0,-19.90774 26.290239,-33.27336 61.001159,-33.27336 34.71092,0 62.84968,13.36562 62.84968,33.27336 z"
         id="path5639"
         inkscape:connector-curvature="0" />
      <path
         style="fill:#000000;fill-opacity:1;stroke:none;stroke-width:6;stroke-linecap:round;stroke-linejoin:round;stroke-miterlimit:4;stroke-dasharray:none;stroke-opacity:1"
         d="m 179.11419,931.76321 c 0,7.65682 -19.03951,24.49289 -30.26951,24.49289 -11.23,0 -32.11804,-16.83607 -32.11804,-24.49289 0,-7.65682 20.88804,-12.47751 32.11804,-12.47751 11.23,0 30.26951,4.82069 30.26951,12.47751 z"
         id="path5636"
         inkscape:connector-curvature="0" />
      <ellipse
         style="fill:#803300;fill-opacity:1;stroke:none;stroke-width:6;stroke-linecap:round;stroke-linejoin:round;stroke-miterlimit:4;stroke-dasharray:none;stroke-opacity:1"
         id="path5793"
         cx="68.304314"
         cy="827.68188"
         rx="23.761904"
         ry="23.110893" />
      <path
         style="fill:#e9c6af;fill-opacity:1;stroke:none;stroke-width:6;stroke-linecap:round;stroke-linejoin:round;stroke-miterlimit:4;stroke-dasharray:none;stroke-opacity:1"
         d="m 84.783829,826.31658 a 16.548868,16.095475 0 0 0 -16.479516,-14.73097 16.548868,16.095475 0 0 0 -16.548469,16.09586 16.548868,16.095475 0 0 0 16.548469,16.09587 16.548868,16.095475 0 0 0 1.131519,-0.0389 c 0.815278,-1.33699 1.581797,-2.72722 2.471662,-3.9833 1.572046,-2.21902 3.258302,-4.3124 5.054709,-6.28347 1.796407,-1.97106 3.702393,-3.81907 5.712404,-5.54798 0.668844,-0.57531 1.417521,-1.05819 2.109222,-1.60711 z"
         id="path5806"
         inkscape:connector-curvature="0" />
      <ellipse
         ry="23.110893"
         rx="23.761904"
         cy="827.68188"
         cx="-231.24309"
         id="ellipse5814"
         style="fill:#803300;fill-opacity:1;stroke:none;stroke-width:6;stroke-linecap:round;stroke-linejoin:round;stroke-miterlimit:4;stroke-dasharray:none;stroke-opacity:1"
         transform="scale(-1,1)" />
      <path
         id="path5816"
         d="m 214.76356,826.31658 a 16.548868,16.095475 0 0 1 16.47952,-14.73097 16.548868,16.095475 0 0 1 16.54847,16.09586 16.548868,16.095475 0 0 1 -16.54847,16.09587 16.548868,16.095475 0 0 1 -1.13152,-0.0389 c -0.81528,-1.33699 -1.5818,-2.72722 -2.47166,-3.9833 -1.57205,-2.21902 -3.2583,-4.3124 -5.05471,-6.28347 -1.79641,-1.97106 -3.70239,-3.81907 -5.7124,-5.54798 -0.66885,-0.57531 -1.41753,-1.05819 -2.10923,-1.60711 z"
         style="fill:#e9c6af;fill-opacity:1;stroke:none;stroke-width:6;stroke-linecap:round;stroke-linejoin:round;stroke-miterlimit:4;stroke-dasharray:none;stroke-opacity:1"
         inkscape:connector-curvature="0" />
      <g
         id="g5936"
         transform="translate(-175.49996,139.50023)">
        <path
           style="fill:#ff0000;fill-opacity:1;stroke:none;stroke-width:6;stroke-linecap:round;stroke-linejoin:round;stroke-miterlimit:4;stroke-dasharray:none;stroke-opacity:1"
           d="m 323.23144,675.8575 c -13.39625,0 -26.02272,1.07931 -37.67187,3.33442 v 11.35333 c 11.64929,-2.25501 24.27565,-3.33443 37.67187,-3.33442 15.1037,0 29.45807,1.37252 42.66602,4.25604 v -11.35498 c -13.20738,-2.88322 -27.56311,-4.25439 -42.66602,-4.25439 z"
           id="path5921"
           inkscape:connector-curvature="0" />
        <path
           id="path5926"
           transform="translate(0,752.36216)"
           d="m 340.69531,-75.849609 a 15.875,7.8125 0 0 1 4.42969,5.412109 15.875,7.8125 0 0 1 -5.41406,5.863281 c 9.11632,0.65256 17.87758,1.865918 26.18554,3.679688 V -72.25 c -8.00689,-1.747935 -16.43955,-2.931738 -25.20117,-3.599609 z"
           style="fill:#e50000;fill-opacity:1;stroke:none;stroke-width:6;stroke-linecap:round;stroke-linejoin:round;stroke-miterlimit:4;stroke-dasharray:none;stroke-opacity:1"
           inkscape:connector-curvature="0" />
      </g>
      <path
         style="fill:#1a1a1a;fill-opacity:1;stroke:none;stroke-width:6;stroke-linecap:round;stroke-linejoin:round;stroke-miterlimit:4;stroke-dasharray:none;stroke-opacity:1"
         d="m 148.38676,789.03817 c -43.48918,0 -75.81659,18.33917 -83.22852,62.71484 12.32201,-10.51592 27.52399,-17.55289 44.90235,-21.50976 0,0 -2.73381,-13.77811 10.25,-16.02881 12.98381,-2.2507 14.02562,-4 27.42187,-4 15.10291,0 16.422,0.43924 30.66602,4 14.24402,3.56076 12,17.11279 12,17.11279 17.21703,4.421 32.48258,11.86341 44.90039,22.70899 -7.27614,-46.02916 -42.68514,-64.99805 -86.91211,-64.99805 z"
         id="path5918"
         inkscape:connector-curvature="0" />
    </g>
  </g>
</svg>
