<?xml version="1.0" encoding="UTF-8" standalone="no"?>
<svg
   xmlns:dc="http://purl.org/dc/elements/1.1/"
   xmlns:cc="http://creativecommons.org/ns#"
   xmlns:rdf="http://www.w3.org/1999/02/22-rdf-syntax-ns#"
   xmlns:svg="http://www.w3.org/2000/svg"
   xmlns="http://www.w3.org/2000/svg"
   version="1.1"
   id="svg4938"
   viewBox="0 0 300 300"
   height="300"
   width="300">
  <defs
     id="defs4940" />
  <metadata
     id="metadata4943">
    <rdf:RDF>
      <cc:Work
         rdf:about="">
        <dc:format>image/svg+xml</dc:format>
        <dc:type
           rdf:resource="http://purl.org/dc/dcmitype/StillImage" />
        <dc:title></dc:title>
      </cc:Work>
    </rdf:RDF>
  </metadata>
  <g
     transform="translate(0,-752.36216)"
     id="layer1">
    <g
       transform="matrix(1.1957508,0,0,1.1957508,-29.362618,-219.64832)"
       id="g5818">
      <path
         style="fill:#784421;fill-opacity:1;stroke:none;stroke-width:6;stroke-linecap:round;stroke-linejoin:round;stroke-miterlimit:4;stroke-dasharray:none;stroke-opacity:1"
         d="m 252.54114,928.9484 c 2e-5,67.66534 -45.69568,117.4138 -104.58322,117.4138 -58.887534,0 -100.49908,-49.74846 -100.499059,-117.4138 4e-6,-67.66533 41.611543,-94.95086 100.499059,-94.95086 58.88753,0 104.58322,27.28553 104.58322,94.95086 z"
         id="path5634" />
      <g
         id="layer1-8"
         transform="matrix(1.2961877,0,0,1.2961877,-157.9081,-105.53413)">
        <g
           id="g4372">
          <path
             style="fill:#000000;fill-opacity:1;stroke:none;stroke-width:8;stroke-linecap:square;stroke-linejoin:round;stroke-miterlimit:4;stroke-dasharray:none;stroke-opacity:1"
             d="m 175.58026,764.63545 c -5.54684,-0.0595 -11.38885,0.15472 -19.43164,1.81641 l -12.20313,2.35937 1.9668,12.81641 c 1.78451,0.25007 4.24739,0.86604 5.41406,2.42773 3.00637,4.0243 1.02387,7.91461 1.70703,15.02149 2.27601,23.6772 10.1596,28.63254 22.36914,30.05664 6.39388,0.74577 19.44548,1.94528 28.36328,-1.2207 8.05947,-2.86125 15.53138,-8.41073 20.58985,-15.30664 5.34742,-7.28984 5.92198,-15.70821 9.24125,-22.09209 2.35233,-4.52418 6.56262,-3.22641 7.89063,0.33288 2.51525,6.74129 3.73164,14.46937 9.07906,21.75921 5.05844,6.89591 12.53037,12.44539 20.58984,15.30664 8.9178,3.16598 21.9694,1.96647 28.36328,1.2207 12.20955,-1.4241 20.09508,-6.37944 22.37109,-30.05664 0.68316,-7.10688 -1.29933,-10.99719 1.70703,-15.02149 1.20511,-1.61315 3.80417,-2.22555 5.59766,-2.45898 l 1.95703,-12.75195 -12.37695,-2.39258 c -12.86847,-2.6587 -20.10562,-1.61027 -29.50781,-1.66797 -3.48845,-0.0214 -7.48048,0.0976 -11.19532,0.48828 -6.92544,0.72827 -13.78649,2.02979 -20.60351,3.45117 -6.80741,1.41938 -13.28578,5.19953 -20.23828,5.06446 -6.70646,-0.13029 -12.75584,-4.24134 -19.31641,-5.63868 -6.93041,-1.47611 -12.63435,-2.64733 -21.0625,-2.87695 -4.08528,-0.1113 -7.70687,-0.5097 -11.19531,-0.48828 -3.52582,0.0216 -6.74807,-0.11272 -10.07617,-0.14844 z"
             id="path4689" />
          <path
             id="path4694"
             d="m 182.38959,769.63252 c -8.5978,0.14254 -21.1424,0.60165 -24.27344,10.4414 -2.7918,12.99576 -2.6597,27.92062 4.88867,38.88672 6.30362,9.15775 19.91341,7.36076 30.04899,7.00531 16.1072,-0.56488 29.94768,-13.11023 34.2264,-28.45648 1.64415,-6.60778 3.32868,-9.96905 0.59318,-16.51875 -6.52294,-7.63018 -17.13012,-10.03833 -26.06312,-11.05148 -6.40746,-0.26097 -12.95073,-0.37751 -19.42068,-0.30672 z"
             style="fill:#333333;fill-opacity:1;stroke:none;stroke-width:8;stroke-linecap:square;stroke-linejoin:round;stroke-miterlimit:4;stroke-dasharray:none;stroke-opacity:1" />
          <path
             d="m 157.46945,772.89466 a 3.4764421,1.4421878 0 0 1 -3.45866,1.44217 3.4764421,1.4421878 0 0 1 -3.49404,-1.42742 3.4764421,1.4421878 0 0 1 3.42293,-1.45677 3.4764421,1.4421878 0 0 1 3.52905,1.41252"
             id="path4707"
             style="fill:#b3b3b3;fill-opacity:1;stroke:none;stroke-width:8;stroke-linecap:square;stroke-linejoin:round;stroke-miterlimit:4;stroke-dasharray:none;stroke-opacity:1" />
          <path
             style="fill:#333333;fill-opacity:1;stroke:none;stroke-width:8;stroke-linecap:square;stroke-linejoin:round;stroke-miterlimit:4;stroke-dasharray:none;stroke-opacity:1"
             d="m 292.5339,769.63252 c 8.5978,0.14254 21.1424,0.60165 24.27344,10.4414 2.7918,12.99576 2.6597,27.92062 -4.88867,38.88672 -6.30362,9.15775 -19.91341,7.36076 -30.04899,7.00531 -16.1072,-0.56488 -29.94768,-13.11023 -34.2264,-28.45648 -1.64415,-6.60778 -3.32868,-9.96905 -0.59318,-16.51875 6.52294,-7.63018 17.13012,-10.03833 26.06312,-11.05148 6.40746,-0.26097 12.95073,-0.37751 19.42068,-0.30672 z"
             id="path4810" />
          <path
             style="fill:#b3b3b3;fill-opacity:1;stroke:none;stroke-width:8;stroke-linecap:square;stroke-linejoin:round;stroke-miterlimit:4;stroke-dasharray:none;stroke-opacity:1"
             id="path4812"
             d="m 317.45403,772.89466 a 3.4764421,1.4421878 0 0 0 3.45867,1.44217 3.4764421,1.4421878 0 0 0 3.49404,-1.42742 3.4764421,1.4421878 0 0 0 -3.42293,-1.45677 3.4764421,1.4421878 0 0 0 -3.52905,1.41252" />
          <path
             style="fill:#ffffff;fill-opacity:1;stroke:none;stroke-width:6;stroke-linecap:round;stroke-linejoin:round;stroke-miterlimit:4;stroke-dasharray:none;stroke-opacity:1"
             d="M 52.107422,5.1132812 35.755859,61.623047 c 4.674638,0.257133 9.529586,-0.13619 13.777344,-0.285156 0.207893,-0.0073 0.413972,-0.02585 0.621094,-0.03711 L 65.994141,6.5664062 C 63.379652,5.9883415 60.770668,5.5937336 58.291016,5.3125 56.242327,5.2290588 54.177043,5.1657899 52.107422,5.1132812 Z"
             transform="translate(143.51971,764.62764)"
             id="rect4338" />
          <path
             style="fill:#ffffff;fill-opacity:1;stroke:none;stroke-width:6;stroke-linecap:round;stroke-linejoin:round;stroke-miterlimit:4;stroke-dasharray:none;stroke-opacity:1"
             d="m 42.171875,4.9921875 c -1.101666,0.00143 -2.204272,-2.999e-4 -3.302734,0.011719 -0.921466,0.015277 -1.904704,0.042464 -2.900391,0.076172 L 20.916016,56.091797 c 1.473427,1.556973 3.213181,2.703102 5.134765,3.535156 L 42.171875,4.9921875 Z"
             transform="translate(143.51971,764.62764)"
             id="rect4348" />
        </g>
      </g>
      <path
         style="fill:#e9c6af;fill-opacity:1;stroke:none;stroke-width:6;stroke-linecap:round;stroke-linejoin:round;stroke-miterlimit:4;stroke-dasharray:none;stroke-opacity:1"
         d="m 218.4096,999.91059 c 2e-5,21.99231 -31.08514,42.88361 -69.43064,42.88361 -38.3455,0 -67.388577,-20.8913 -67.388558,-42.88361 0,-21.99227 29.043078,-36.75739 67.388558,-36.75739 38.34548,0 69.43064,14.76512 69.43064,36.75739 z"
         id="path5639" />
      <path
         style="fill:#000000;fill-opacity:1;stroke:none;stroke-width:6;stroke-linecap:round;stroke-linejoin:round;stroke-miterlimit:4;stroke-dasharray:none;stroke-opacity:1"
         d="m 182.16272,970.81099 c 0,8.45856 -21.03313,27.05752 -33.43902,27.05752 -12.40588,0 -35.4811,-18.59896 -35.4811,-27.05752 0,-8.45857 23.07522,-13.78403 35.4811,-13.78403 12.40589,0 33.43902,5.32546 33.43902,13.78403 z"
         id="path5636" />
      <g
         id="g5808">
        <ellipse
           ry="25.530823"
           rx="26.25"
           cy="855.83136"
           cx="59.75"
           id="path5793"
           style="fill:#784421;fill-opacity:1;stroke:none;stroke-width:6;stroke-linecap:round;stroke-linejoin:round;stroke-miterlimit:4;stroke-dasharray:none;stroke-opacity:1" />
        <path
           transform="translate(0,752.36216)"
           id="path5806"
           d="M 77.955078,101.96094 A 18.281691,17.780823 0 0 0 59.75,85.6875 18.281691,17.780823 0 0 0 41.46875,103.46875 18.281691,17.780823 0 0 0 59.75,121.25 18.281691,17.780823 0 0 0 61,121.20703 c 0.900645,-1.47698 1.747426,-3.01278 2.730469,-4.40039 1.736654,-2.45137 3.599477,-4.76395 5.583984,-6.94141 1.984508,-2.17745 4.090069,-4.21896 6.310547,-6.1289 0.738878,-0.63555 1.565949,-1.169 2.330078,-1.77539 z"
           style="fill:#e9c6af;fill-opacity:1;stroke:none;stroke-width:6;stroke-linecap:round;stroke-linejoin:round;stroke-miterlimit:4;stroke-dasharray:none;stroke-opacity:1" />
      </g>
      <g
         id="g5812"
         transform="matrix(-1,0,0,1,299.5,0)">
        <ellipse
           style="fill:#784421;fill-opacity:1;stroke:none;stroke-width:6;stroke-linecap:round;stroke-linejoin:round;stroke-miterlimit:4;stroke-dasharray:none;stroke-opacity:1"
           id="ellipse5814"
           cx="59.75"
           cy="855.83136"
           rx="26.25"
           ry="25.530823" />
        <path
           style="fill:#e9c6af;fill-opacity:1;stroke:none;stroke-width:6;stroke-linecap:round;stroke-linejoin:round;stroke-miterlimit:4;stroke-dasharray:none;stroke-opacity:1"
           d="M 77.955078,101.96094 A 18.281691,17.780823 0 0 0 59.75,85.6875 18.281691,17.780823 0 0 0 41.46875,103.46875 18.281691,17.780823 0 0 0 59.75,121.25 18.281691,17.780823 0 0 0 61,121.20703 c 0.900645,-1.47698 1.747426,-3.01278 2.730469,-4.40039 1.736654,-2.45137 3.599477,-4.76395 5.583984,-6.94141 1.984508,-2.17745 4.090069,-4.21896 6.310547,-6.1289 0.738878,-0.63555 1.565949,-1.169 2.330078,-1.77539 z"
           id="path5816"
           transform="translate(0,752.36216)" />
      </g>
    </g>
  </g>
</svg>
